<svg id="Layer_1" data-name="Layer 1" xmlns="http://www.w3.org/2000/svg" xmlns:xlink="http://www.w3.org/1999/xlink" viewBox="0 0 687.33 193.41"><defs><style>.cls-1,.cls-2,.cls-3,.cls-4{fill-rule:evenodd;}.cls-1{fill:url(#linear-gradient);}.cls-2{fill:url(#linear-gradient-2);}.cls-3{fill:url(#linear-gradient-3);}.cls-4{fill:url(#linear-gradient-4);}.cls-5{font-size:51.29px;stroke:#000;stroke-miterlimit:10;stroke-width:2px;font-family:UniSansLight;}</style><linearGradient id="linear-gradient" x1="167.04" y1="155.99" x2="109.32" y2="126.58" gradientUnits="userSpaceOnUse"><stop offset="0.41" stop-color="#2b86da"/><stop offset="0.91" stop-color="#2595d3" stop-opacity="0"/></linearGradient><linearGradient id="linear-gradient-2" x1="142.54" y1="67.56" x2="-2.76" y2="132.25" gradientUnits="userSpaceOnUse"><stop offset="0.04" stop-color="#00efa9" stop-opacity="0"/><stop offset="0.06" stop-color="#00eea9" stop-opacity="0.02"/><stop offset="0.09" stop-color="#01ecaa" stop-opacity="0.09"/><stop offset="0.12" stop-color="#02e9ac" stop-opacity="0.2"/><stop offset="0.15" stop-color="#04e4ae" stop-opacity="0.36"/><stop offset="0.17" stop-color="#06e0b0" stop-opacity="0.5"/><stop offset="0.34" stop-color="#0cd2b6"/></linearGradient><linearGradient id="linear-gradient-3" x1="176.06" y1="62.13" x2="143.98" y2="127.91" gradientUnits="userSpaceOnUse"><stop offset="0" stop-color="#08ebac"/><stop offset="0.04" stop-color="#0ae3af" stop-opacity="0.93"/><stop offset="0.12" stop-color="#0cd7b4" stop-opacity="0.83"/><stop offset="0.2" stop-color="#0eceb8" stop-opacity="0.75"/><stop offset="0.27" stop-color="#10c9ba" stop-opacity="0.71"/><stop offset="0.33" stop-color="#10c7bb" stop-opacity="0.69"/><stop offset="0.45" stop-color="#13c0be" stop-opacity="0.44"/><stop offset="0.6" stop-color="#17b8c2" stop-opacity="0.12"/><stop offset="0.68" stop-color="#18b5c4" stop-opacity="0"/></linearGradient><linearGradient id="linear-gradient-4" x1="98.28" y1="-3503.89" x2="177.57" y2="-3547.05" gradientTransform="matrix(1, 0, 0, -1, 0, -3428.47)" gradientUnits="userSpaceOnUse"><stop offset="0" stop-color="#00efa9"/><stop offset="1" stop-color="#3f56f0"/></linearGradient></defs><path class="cls-1" d="M164.72,133.15a45.83,45.83,0,0,1-56.16-.81l-9.15,9.16a58.67,58.67,0,0,0,74.46.8Z"/><path class="cls-2" d="M128.21,51.48V38.4a58.82,58.82,0,0,0-39.73,91l9.32-9.32a45.94,45.94,0,0,1,30.41-68.64Z"/><path class="cls-3" d="M144.53,38.18v13a45.9,45.9,0,0,1,31.28,70l9.26,9.26a58.77,58.77,0,0,0-40.54-92.28Z"/><path class="cls-4" d="M125.76,66.66A32.25,32.25,0,0,1,161.68,76L144.5,82.5A16,16,0,0,0,121.13,97l9.63-3.63,18.74-7.06,15.37-5.79a35.58,35.58,0,0,1,2.36,4.75,32.05,32.05,0,0,1-54.55,31.89l17.18-6.47a16,16,0,0,0,23.36-14.5L147,98.54l-22.11,8.34-15.37,5.79a35.64,35.64,0,0,1-2.37-4.75C100.68,91.59,109.08,73,125.76,66.66Z"/><text class="cls-5" transform="translate(214.11 112.8)">STEER THROUGH</text></svg>